<?xml version="1.0" ?><!DOCTYPE svg  PUBLIC '-//W3C//DTD SVG 1.1//EN'  'http://www.w3.org/Graphics/SVG/1.1/DTD/svg11.dtd'><svg enable-background="new 0 0 24 24" height="24px" id="Layer_1" version="1.1" viewBox="0 0 24 24" width="24px" xml:space="preserve" xmlns="http://www.w3.org/2000/svg" xmlns:xlink="http://www.w3.org/1999/xlink"><g><g><path d="M19.7,23.5H4.3c-2.1,0-3.8-1.7-3.8-3.8V4.3c0-2.1,1.7-3.8,3.8-3.8h15.3c2.1,0,3.8,1.7,3.8,3.8v15.3    C23.5,21.8,21.8,23.5,19.7,23.5z M4.3,1.5c-1.6,0-2.8,1.3-2.8,2.8v15.3c0,1.6,1.3,2.8,2.8,2.8h15.3c1.6,0,2.8-1.3,2.8-2.8V4.3    c0-1.6-1.3-2.8-2.8-2.8H4.3z"/></g><g><g><path d="M9.5,17.9c-1.6,0-3.1-0.4-4.5-1.3c-0.2-0.1-0.3-0.4-0.2-0.6c0.1-0.2,0.3-0.4,0.5-0.3c0.9,0.1,1.9,0,2.7-0.4     c-0.8-0.4-1.5-1.1-1.7-1.9c-0.1-0.2,0-0.3,0.1-0.5c-0.7-0.6-1.1-1.5-1.1-2.4c0-0.2,0.1-0.4,0.2-0.4c0,0,0.1,0,0.1-0.1     C5.5,9.5,5.4,9,5.4,8.5c0-0.6,0.2-1.1,0.4-1.6C5.9,6.7,6,6.6,6.2,6.6c0.2,0,0.3,0.1,0.4,0.2c1.2,1.4,2.9,2.4,4.7,2.6     c0,0,0,0,0-0.1c0-1.8,1.5-3.2,3.2-3.2c0.8,0,1.6,0.3,2.2,0.8c0.5-0.1,0.9-0.3,1.3-0.5c0.2-0.1,0.4-0.1,0.6,0     c0.2,0.1,0.2,0.3,0.2,0.5c0,0.1-0.1,0.3-0.2,0.4c0.2,0,0.3,0,0.5,0.2c0.1,0.2,0.2,0.4,0,0.6c-0.4,0.5-0.8,1-1.3,1.4     c0,0,0,0.1,0,0.1C17.8,13.7,14.7,17.9,9.5,17.9z M7.3,16.5c0.7,0.2,1.4,0.3,2.2,0.3c4.6,0,7.3-3.7,7.3-7.2c0-0.1,0-0.2,0-0.3     c0-0.2,0.1-0.3,0.2-0.4c0,0,0.1,0,0.1-0.1c-0.2,0-0.4-0.1-0.5-0.3c-0.1-0.2,0-0.4,0.1-0.5c0,0-0.1,0-0.1,0c-0.2,0-0.3,0-0.5-0.1     c-0.4-0.4-1-0.7-1.6-0.7c-1.2,0-2.2,1-2.2,2.2c0,0.2,0,0.3,0.1,0.5c0,0.2,0,0.3-0.1,0.4s-0.3,0.2-0.4,0.2c-2.1-0.1-4-1-5.5-2.4     c0,0.1,0,0.3,0,0.4c0,0.7,0.4,1.4,1,1.8c0.2,0.1,0.3,0.4,0.2,0.6c-0.1,0.2-0.3,0.4-0.5,0.3c-0.2,0-0.4,0-0.6-0.1     c0.3,0.7,0.9,1.3,1.7,1.4c0.2,0,0.4,0.2,0.4,0.5c0,0.2-0.1,0.4-0.4,0.5c-0.2,0-0.3,0.1-0.5,0.1c0.4,0.5,1,0.8,1.7,0.8     c0.2,0,0.4,0.1,0.5,0.3s0,0.4-0.2,0.6C9,16,8.2,16.3,7.3,16.5z"/></g></g></g></svg>