<?xml version="1.0" ?><!DOCTYPE svg  PUBLIC '-//W3C//DTD SVG 1.1//EN'  'http://www.w3.org/Graphics/SVG/1.1/DTD/svg11.dtd'><svg enable-background="new 0 0 24 24" height="24px" id="Layer_1" version="1.1" viewBox="0 0 24 24" width="24px" xml:space="preserve" xmlns="http://www.w3.org/2000/svg" xmlns:xlink="http://www.w3.org/1999/xlink"><g><g><path d="M19.7,23.5H4.3c-2.1,0-3.8-1.7-3.8-3.8V4.3c0-2.1,1.7-3.8,3.8-3.8h15.3c2.1,0,3.8,1.7,3.8,3.8v15.3    C23.5,21.8,21.8,23.5,19.7,23.5z M4.3,1.5c-1.6,0-2.8,1.3-2.8,2.8v15.3c0,1.6,1.3,2.8,2.8,2.8h15.3c1.6,0,2.8-1.3,2.8-2.8V4.3    c0-1.6-1.3-2.8-2.8-2.8H4.3z"/></g><g id="LinkedIn_2_"><g><path d="M8.5,19.7H5.4c-0.3,0-0.5-0.2-0.5-0.5V9.4c0-0.3,0.2-0.5,0.5-0.5h3.1C8.8,8.9,9,9.1,9,9.4v9.8C9,19.5,8.8,19.7,8.5,19.7z      M5.9,18.7H8V9.9H5.9V18.7z"/></g><g><path d="M19,19.7h-3.5c-0.3,0-0.5-0.2-0.5-0.5V15c0-1.1-0.4-1.7-1.3-1.7c-0.7,0-1,0.5-1.2,0.9c0,0.1,0,0.3,0,0.5l0,4.5     c0,0.3-0.2,0.5-0.5,0.5H8.5c-0.1,0-0.3-0.1-0.4-0.1S8,19.3,8,19.2c0-3.1,0-9.1,0-9.7c0-0.1,0-0.3,0.1-0.4C8.2,9,8.4,8.9,8.5,8.9     H12c0.3,0,0.5,0.2,0.5,0.5v0.2c0.6-0.4,1.5-0.8,2.6-0.8c2.1,0,4.4,1.3,4.4,4.9v5.4C19.5,19.5,19.2,19.7,19,19.7z M16,18.7h2.5     v-4.9c0-2.5-1.2-3.9-3.4-3.9c-1.6,0-2.5,0.8-2.6,1.3c-0.1,0.2-0.3,0.4-0.6,0.3c-0.2,0-0.4-0.2-0.4-0.5v-1H9c0,1.8,0,7.1,0,8.8     h2.5l0-4c0-0.3,0-0.6,0.1-0.9c0.4-1,1.2-1.5,2.1-1.5c1.4,0,2.3,1,2.3,2.7V18.7z"/></g><g><path d="M6.9,8.7L6.9,8.7c-1.4,0-2.4-0.9-2.4-2.2c0-1.3,1-2.2,2.4-2.2c1.4,0,2.3,0.9,2.4,2.2C9.3,7.8,8.3,8.7,6.9,8.7z M6.9,5.3     c-0.8,0-1.4,0.5-1.4,1.2c0,0.7,0.5,1.2,1.3,1.2h0c0.8,0,1.4-0.5,1.4-1.2C8.3,5.8,7.7,5.3,6.9,5.3z"/></g></g></g></svg>