<svg id="woman_talking" data-name="woman talking" xmlns="http://www.w3.org/2000/svg" xmlns:xlink="http://www.w3.org/1999/xlink" width="162.525" height="516.096" viewBox="0 0 162.525 516.096">
  <defs>
    <linearGradient id="linear-gradient" x1="-8.153" y1="3.883" x2="-9.701" y2="3.887" gradientUnits="objectBoundingBox">
      <stop offset="0" stop-color="#4f68ca"/>
      <stop offset="1" stop-color="#5aceed"/>
    </linearGradient>
    <linearGradient id="linear-gradient-2" x1="-7.33" y1="4.587" x2="-8.33" y2="4.587" gradientUnits="objectBoundingBox">
      <stop offset="0" stop-color="#f87b58"/>
      <stop offset="0.5" stop-color="#f8c548"/>
      <stop offset="1" stop-color="#f89c51"/>
    </linearGradient>
    <linearGradient id="linear-gradient-3" x1="-5.45" y1="6.421" x2="-6.45" y2="6.421" gradientUnits="objectBoundingBox">
      <stop offset="0" stop-color="#e1a1ed"/>
      <stop offset="1" stop-color="#7658f4"/>
    </linearGradient>
    <linearGradient id="linear-gradient-4" x1="-8.972" y1="6.111" x2="-9.972" y2="6.111" gradientUnits="objectBoundingBox">
      <stop offset="0" stop-color="#4b44be"/>
      <stop offset="1" stop-color="#5bd3ef"/>
    </linearGradient>
  </defs>
  <g id="Group_30" data-name="Group 30" transform="translate(14.891 477.993)">
    <path id="Path_269" data-name="Path 269" d="M41.322,478l13.2,3s3.2,10.4,4.7,16c.1.3.4,1.3.6,1.9a14.279,14.279,0,0,1,.3,2.9c-.3,5-2.2,9.3-6.6,11.5-4.9,2.5-8.7,4.8-13.9,0s-6.1-7.8-3.9-16.1S41.322,478,41.322,478Z" transform="translate(52.888 -478)" fill="#4b44be"/>
    <path id="Path_270" data-name="Path 270" d="M115.987,495.3c8.9-2.8,12.7-13.8,12.7-13.8l17.9-.9s.4,11.2.9,17.3c.6,8.1-.9,11.7-6.3,11.2-7.2-.6-36.6,2-41.2-.9C93.887,504.5,107.687,497.9,115.987,495.3Z" transform="translate(-98.476 -478)" fill="#4b44be"/>
  </g>
  <path id="Path_271" data-name="Path 271" d="M117.172,225.4s6.7,9.2,8.8,34-2.6,71.9-4.8,81-11,94.1-13.2,100.4-5.2,40.1-5.2,40.1l-14.2.4s-4.2-44.2-4.2-55.9-5.8-122.4-5.4-130.5-1.5-5.5-1.5-5.5-12.5,39.7-16.2,46.3-10.3,19.5-10.3,19.5-1.5,41.5-3.3,65.5-3.7,61.8-3.7,61.8l-19.1-.4s-4.4-63.2-4.4-76.5-4-45.2-4-48.9,12.5-68.4,12.5-68.4l8.7-63Z" transform="translate(19.529 -0.007)" fill="url(#linear-gradient)"/>
  <path id="Path_272" data-name="Path 272" d="M152.036,51.7s-8.3-32.3-14.8-34.7c-25.6-9.5-28.2-25.5-39.1,20.3s-41.1,98.9-54,114.6c-17.7,21.5-16.2,35.4-9.9,36.7s38.5,9.8,41,10.6-5.2,23.1,5.6,20c6-1.7,6.5-28.2-1-29.4-3.1-.5-38.8-7.6-38.6-9.7s27.8-40.4,27.8-40.4l17.8-8.4,44.1-23.7,21.1-10.5,2.2-35.1,1.5-6.8-3.6-3.6" transform="translate(-23.135 -0.007)" fill="url(#linear-gradient-2)"/>
  <path id="Path_273" data-name="Path 273" d="M134.577,95s-.2,2.5,5.8,11.1c3.6,5.2-5.5,1.5,2.2,14.6,12.2,20.7,19,42.9,19.9,56.7.5,8.5-6.9,6.8-10,9.5-1.7,1.5-7.3-1-8.6-2.9l-2.5-4.4c-.7-1-7.5-11-7.7-12.2-.6-3.9-4.4-20.4-5.7-26.3-1.1-5-9.9-16.4-17-39.9-2.1-7.2,0-10.2-.5-13.5-1.5-10.7,13.5-10.5,14.8-6.8.3.9,11.7,45.9,12.3,51.9.2,2-3.8,19.8-6.9,24.7s-6.6,8.4-6.6,12.7,2,21.9,5.2,29.7,7.8,25.8,7.8,25.8l-79.9-.4s2.9-34.3,1.7-46.2c0,0-3.4-38.7-5.4-42.5s-23.4,31-28.8,39.9c-2.2,3.7,28.2,10.2,30.7,13.1s-2.6,11-2.6,11-53.1-6.5-52.8-14.6,30.3-70.5,41-82.3,13.5-11.4,22.5-8.2,13.3,6.1,25.4,8.1a38.5,38.5,0,0,0,25.7-4.6C118.877,96.3,134.577,95,134.577,95Z" transform="translate(0.024 -0.007)" fill="url(#linear-gradient-3)"/>
  <path id="_Path_" d="M120.716,125.8a33.361,33.361,0,0,1-2.5-4c-.7-1.3-1.2-2.1-1.5-2.7-3.9-6.6-12.8-21.7-14.2-28.3a54.453,54.453,0,0,1-1.8-8,20.3,20.3,0,0,1-.2-5.5c.5-3.4,7.4-17.6,6.4-18.9-.1-.2-1-4.2-2.3-2.9-1.5,1.5-11.3,6.9-12,7.9a52.767,52.767,0,0,0-4.5,10.7c-.7,2.2-1.3,8.6-1.5,9.1-2.1,5.3.3,9.3.1,12.1-.1,1-.1,5-.6,5.4-1.4,1-3.3,1.9-4.1.9s-.5-3.8-.6-6.6c-.5-14.5,2.2-27.8,5.6-34.8s11.3-20.7,5.9-28.6-16.7-14.1-17.2-16.1-.8,7.6-6.8,11-14.4,12.5-14.4,14.4-2,8.5,3.7,19.8,10.2,25.8,2.3,36.5-27.8,25.8-29.2,29.2,0,18.5.5,27-16.1-14.5-15.5-25.6-1.4-15.9,9.9-32.8,18.7-46.1,19-53.2,3.6-26.6,10.4-32.3,7.4-11,26.3-9.1c0,0,15.9.6,20.4,16.1s5.2,37.3,5.4,40.7c.2,3.6-1.4,25.6.6,32.5s11.3,21.6,13.1,27.6" transform="translate(24.785 -0.007)" fill="url(#linear-gradient-4)"/>
  <path id="Path_274" data-name="Path 274" d="M31.734,481a2.769,2.769,0,0,0-.1.9c-.1,2.2,0,7.7,2.4,11.2,3,4.6-4.1,14.7-4.1,17.2s3.3,4.8,5.6,4.1,11.9-6.1,8.1-17.7c-1.5-4.7-2.4-8.8-3.3-11.4-.5-1.3-.9-2.6-1.3-3.9a10.869,10.869,0,0,1-.1-1.8c.1-.8.1-1.7.2-2.6.5-4.5,19.5-144.8,20.2-150.2.6-4.8,3.4-34.5,3.1-51.9a21.741,21.741,0,0,0,.1-4.4,23.521,23.521,0,0,1-.1-2.8c-.1-1.6-.2-3.2-.4-4.8.3-1.3.1-1.3,0-3.4s0-3.3-.2-4.6c-1.9-11.8-6.2-25.2-8.3-29l-.6-2.1s-3.5-15.8-5.1-19.1c-1.4-3-7.5-32.7-7-36s6.9-11.7,6.9-11.7l-.9-4.5s-2-6.6-4-12.2c-1.6-4.3-6.7-15.7-8.8-20.6-3.4-8-5-11.1-5.7-16.4-.5-4-.9-2.3-2.7-1.5-2.6,1-2.7-.3-2.8-2.8a226.861,226.861,0,0,1,.9-23.3c.8-6.1,7.1-15.9,9.8-21.9a55.264,55.264,0,0,0,3.8-9.8c1.2-5.2,1.1-11-3.8-15.9-4.3-4.3-17.1-13.2-17.1-13.2s5.9,12,3.5,16.1c-3.9,6.3-2,14.3-2,17.1s3.1,9.8,1.2,16.9c-3.3,12.5,2.4,19.6.3,28.1-1.3,5.2-2.1,6.9-.8,11.5s14.2,39.5,7.1,59.8-10.4,34.7,1,46.9.9,23.1.7,31.7c-.5,21.2,9.8,18.9,10.4,32.1s-2.3,22.7-2.5,29.6c-.5,22.7-.2,27.2,1,36.1s7.3,25.8.5,59-5.8,36.2-5.1,55S31.734,481,31.734,481Z" transform="translate(83.467 -0.007)" opacity="0.07"/>
  <path id="Path_275" data-name="Path 275" d="M46.922,45a67.131,67.131,0,0,0-8.6-5.1c-3.7-1.5-5.4,4-6.4,6.5s-6,17.9-6.2,19.1c-.1.5.7.4,3.3,2.4.4.3,1.1.1,1.9-1.7.4-1,1.7-3.4,3.2-4.2.6-.3,10-3.6,10.1-2.7s-2.2,6.6-3.4,9.9c-.1.3-1.7,3.6-1.4,4.2.1.1-.1,0-.1,0s1.7.6,2.2,0,5.3-16.1,7.1-22c.4-1.3,1.3-3.1.4-3.9Z" transform="translate(87.38 -0.007)" fill="#efefef"/>
</svg>
